<?xml version="1.0" encoding="utf-8"?>
<svg version="1.1" id="Element-2" xmlns="http://www.w3.org/2000/svg" xmlns:xlink="http://www.w3.org/1999/xlink" x="0px" y="0px"
	 viewBox="0 0 390 250" style="enable-background:new 0 0 390 250;" xml:space="preserve">
<style type="text/css">
	.st0{opacity:0.5;}
	.st1{fill:#D6E2E2;}
	.st2{fill:#71A416;}
	.st3{enable-background:new;}
	.st4{fill:#737C80;}
	.st5{fill:#192A3C;}
	.st6{fill:#D9DEE9;}
	.st7{fill:#ECECEC;}
</style>
<g id="lines" class="st0">
	<path class="st1" d="M67.1,58.3h1v153.5h-1V58.3z"/>
	<path id="Rectangle_10_copy" class="st1" d="M98.7,58.3h1v153.5h-1V58.3z"/>
	<path id="Rectangle_10_copy_2" class="st1" d="M130.3,58.3h1v153.5h-1V58.3z"/>
	<path id="Rectangle_10_copy_3" class="st1" d="M161,58.3h1v153.5h-1V58.3z"/>
	<path id="Rectangle_10_copy_4" class="st1" d="M192.6,58.3h1v153.5h-1V58.3z"/>
	<path id="Rectangle_10_copy_5" class="st1" d="M224.2,58.3h1v153.5h-1V58.3z"/>
	<path id="Rectangle_10_copy_6" class="st1" d="M254.8,58.3h1v153.5h-1V58.3z"/>
	<path id="Rectangle_10_copy_7" class="st1" d="M286.4,58.3h1v153.5h-1V58.3z"/>
	<path id="Rectangle_10_copy_8" class="st1" d="M318,58.3h1v153.5h-1V58.3z"/>
	<path id="Rectangle_10_copy_9" class="st1" d="M349.6,58.3h1v153.5h-1V58.3z"/>
	<path id="Rectangle_10_copy_10" class="st1" d="M379.3,58.3h1v153.5h-1V58.3z"/>
	<path id="Rectangle_10_copy_11" class="st1" d="M380.3,181v1H37.4v-1H380.3z"/>
	<path id="Rectangle_10_copy_12" class="st1" d="M380.3,150.3v1H37.4v-1H380.3z"/>
	<path id="Rectangle_10_copy_13" class="st1" d="M380.3,119.6v1H37.4v-1H380.3z"/>
	<path id="Rectangle_10_copy_14" class="st1" d="M380.3,88.9v1H37.4v-1H380.3z"/>
	<path id="Rectangle_10_copy_15" class="st1" d="M380.3,58.3v1H37.4v-1H380.3z"/>
</g>
<g id="details">
	<path class="st2" d="M34.6,17h33.5v22.1H34.6V17z"/>
	<g id="_2015" class="st3">
		<path class="st4" d="M82.3,33.7c3.7-2.9,5.7-4.6,5.7-6.4c0-1.3-1.1-1.9-2.1-1.9c-1.2,0-2.2,0.5-2.8,1.3L82.3,26
			c0.8-1,2.1-1.6,3.6-1.6c1.7,0,3.4,1,3.4,3c0,2.1-2.1,4-5,6.2h5v1.1h-7V33.7z"/>
		<path class="st4" d="M95.2,24.4c2.8,0,3.9,2.8,3.9,5.3c0,2.5-1.1,5.3-3.9,5.3c-2.8,0-3.9-2.8-3.9-5.3
			C91.3,27.1,92.4,24.4,95.2,24.4z M95.2,25.5c-1.9,0-2.6,2.1-2.6,4.1s0.7,4.2,2.6,4.2c1.9,0,2.6-2.1,2.6-4.2S97.1,25.5,95.2,25.5z"
			/>
		<path class="st4" d="M102.6,26.2l-1.6,1.7l-0.8-0.8l2.6-2.6h1.1v10.2h-1.3V26.2z"/>
		<path class="st4" d="M106.9,32.4c0.7,0.9,1.6,1.4,2.8,1.4c1.4,0,2.4-1,2.4-2.2c0-1.4-1-2.2-2.3-2.2c-0.9,0-1.7,0.3-2.4,1l-0.9-0.3
			v-5.5h6.3v1.1h-5v3.6c0.5-0.5,1.4-0.9,2.4-0.9c1.7,0,3.3,1.2,3.3,3.3c0,2.1-1.6,3.4-3.6,3.4c-1.7,0-2.8-0.6-3.6-1.6L106.9,32.4z"
			/>
	</g>
	<path id="Rectangle_11_copy" class="st5" d="M149.5,17H183v22.1h-33.5V17z"/>
	<g id="_2016" class="st3">
		<path class="st4" d="M197.2,33.7c3.7-2.9,5.7-4.6,5.7-6.4c0-1.3-1.1-1.9-2.1-1.9c-1.2,0-2.2,0.5-2.8,1.3l-0.8-0.8
			c0.8-1,2.1-1.6,3.6-1.6c1.7,0,3.4,1,3.4,3c0,2.1-2.1,4-5,6.2h5v1.1h-7V33.7z"/>
		<path class="st4" d="M210.1,24.4c2.8,0,3.9,2.8,3.9,5.3c0,2.5-1.1,5.3-3.9,5.3c-2.8,0-3.9-2.8-3.9-5.3
			C206.2,27.1,207.3,24.4,210.1,24.4z M210.1,25.5c-1.9,0-2.6,2.1-2.6,4.1s0.7,4.2,2.6,4.2s2.6-2.1,2.6-4.2S212,25.5,210.1,25.5z"/>
		<path class="st4" d="M217.5,26.2l-1.6,1.7l-0.8-0.8l2.6-2.6h1.1v10.2h-1.3V26.2z"/>
		<path class="st4" d="M224.9,24.4c1.3,0,2.2,0.5,2.8,1.2l-0.6,1c-0.5-0.6-1.1-1-2.2-1c-2,0-2.9,2-2.9,4c0,0.1,0,0.3,0,0.4
			c0.4-0.7,1.6-1.6,2.9-1.6c1.8,0,3.3,1.1,3.3,3.3c0,1.8-1.3,3.3-3.6,3.3c-2.9,0-3.9-2.5-3.9-5.3S222.1,24.4,224.9,24.4z
			 M224.6,29.4c-1,0-2,0.6-2.6,1.5c0.1,1.3,0.8,2.8,2.6,2.8c1.6,0,2.3-1.2,2.3-2.2C227,30.1,226,29.4,224.6,29.4z"/>
	</g>
	<path id="Rectangle_11_copy_2" class="st6" d="M274,17h33.5v22.1H274V17z"/>
	<g id="_2017" class="st3">
		<path class="st4" d="M321.7,33.7c3.7-2.9,5.7-4.6,5.7-6.4c0-1.3-1.1-1.9-2.1-1.9c-1.2,0-2.2,0.5-2.8,1.3l-0.8-0.8
			c0.8-1,2.1-1.6,3.6-1.6c1.7,0,3.4,1,3.4,3c0,2.1-2.1,4-5,6.2h5v1.1h-7V33.7z"/>
		<path class="st4" d="M334.6,24.4c2.8,0,3.9,2.8,3.9,5.3c0,2.5-1.1,5.3-3.9,5.3c-2.8,0-3.9-2.8-3.9-5.3
			C330.7,27.1,331.8,24.4,334.6,24.4z M334.6,25.5c-1.9,0-2.6,2.1-2.6,4.1s0.7,4.2,2.6,4.2s2.6-2.1,2.6-4.2S336.5,25.5,334.6,25.5z"
			/>
		<path class="st4" d="M342,26.2l-1.6,1.7l-0.8-0.8l2.6-2.6h1.1v10.2H342V26.2z"/>
		<path class="st4" d="M350.5,25.6h-5.5v-1.1h7v0.9l-4.2,9.4h-1.4L350.5,25.6z"/>
	</g>
</g>
<g id="base">
	<path class="st6" d="M36.5,210l30.6-68.2l31.3,3.8l31.3-21.2l31.3,20.5l31.3-8.9l31.3-27.4L255,102l31.3,35.6l31.2-0.1l31.2,24.4
		l31.5-15.1v66H36.5V210L36.5,210z"/>
	<path class="st5" d="M35.5,212.2l21.8-36.4l22.7,1.8l49.5-28.1l31.3,15.8l31.3-41.8l31.3,0.4l31.3,23.1l31.3,0.3l31.3,28.4
		l31.3-7.1l31.3,24.4v19.6H35.8L35.5,212.2z"/>
	<path class="st2" d="M37.4,212.3l30.9-26.9l31.2-3.3l31.2-8.9l31.2-25.4l31.2,14.8l31.2-8.6l31.2-23l31.2,49.1l31.2-6.4l31.2,21.8
		l31.2,14.2v2.8H37.6L37.4,212.3z"/>
	<path class="st7" d="M36.5,211.7h347.6v3.9H36.5V211.7z M99.1,208.9c2.7,0,4.8,2.1,4.8,4.8c0,2.7-2.1,4.8-4.8,4.8
		c-2.7,0-4.8-2.1-4.8-4.8c0,0,0,0,0,0C94.3,211,96.5,208.9,99.1,208.9z M193.2,208.9c2.7,0,4.8,2.1,4.8,4.8c0,2.7-2.1,4.8-4.8,4.8
		c-2.7,0-4.8-2.1-4.8-4.8c0,0,0,0,0,0C188.4,211,190.5,208.9,193.2,208.9z M130.5,208.9c2.7,0,4.8,2.1,4.8,4.8
		c0,2.7-2.1,4.8-4.8,4.8c-2.7,0-4.8-2.1-4.8-4.8c0,0,0,0,0,0C125.7,211,127.8,208.9,130.5,208.9z M161.8,208.9
		c2.7,0,4.8,2.1,4.8,4.8c0,2.7-2.1,4.8-4.8,4.8c-2.7,0-4.8-2.1-4.8-4.8c0,0,0,0,0,0C157,211,159.1,208.9,161.8,208.9L161.8,208.9z
		 M287.2,208.9c2.7,0,4.8,2.1,4.8,4.8c0,2.7-2.1,4.8-4.8,4.8c-2.7,0-4.8-2.1-4.8-4.8c0,0,0,0,0,0C282.4,211,284.5,208.9,287.2,208.9
		z M318.5,208.9c2.7,0,4.8,2.1,4.8,4.8c0,2.7-2.1,4.8-4.8,4.8c-2.7,0-4.8-2.1-4.8-4.8c0,0,0,0,0,0
		C313.7,211,315.9,208.9,318.5,208.9z M349.9,208.9c2.7,0,4.8,2.1,4.8,4.8c0,2.7-2.1,4.8-4.8,4.8c-2.7,0-4.8-2.1-4.8-4.8
		c0,0,0,0,0,0C345.1,211,347.2,208.9,349.9,208.9z M381.2,208.9c2.7,0,4.8,2.1,4.8,4.8c0,2.7-2.1,4.8-4.8,4.8
		c-2.7,0-4.8-2.1-4.8-4.8c0,0,0,0,0,0C376.4,211,378.5,208.9,381.2,208.9L381.2,208.9z M255.9,208.9c2.7,0,4.8,2.1,4.8,4.8
		s-2.1,4.8-4.8,4.8c-2.7,0-4.8-2.1-4.8-4.8c0,0,0,0,0,0C251,211,253.2,208.9,255.9,208.9L255.9,208.9z M224.5,208.9
		c2.7,0,4.8,2.1,4.8,4.8c0,2.7-2.1,4.8-4.8,4.8c-2.7,0-4.8-2.1-4.8-4.8c0,0,0,0,0,0C219.7,211,221.8,208.9,224.5,208.9L224.5,208.9z
		 M67.8,208.9c2.7,0,4.8,2.1,4.8,4.8c0,2.7-2.1,4.8-4.8,4.8c-2.7,0-4.8-2.1-4.8-4.8c0,0,0,0,0,0C63,211,65.1,208.9,67.8,208.9
		L67.8,208.9z M36.5,208.9c2.7,0,4.8,2.1,4.8,4.8c0,2.7-2.1,4.8-4.8,4.8c-2.7,0-4.8-2.1-4.8-4.8c0,0,0,0,0,0
		C31.7,211,33.8,208.9,36.5,208.9L36.5,208.9z M34.6,215.6V58.3h3.8v157.3H34.6z"/>
</g>
<g id="text">
	<g id="_0" class="st3">
		<path class="st4" d="M19.9,211.2c2.1,0,2.9,2.1,2.9,4c0,1.9-0.8,4-2.9,4c-2.1,0-2.9-2.1-2.9-4C16.9,213.2,17.8,211.2,19.9,211.2z
			 M19.9,212c-1.5,0-2,1.6-2,3.1s0.5,3.1,2,3.1c1.5,0,2-1.6,2-3.1S21.3,212,19.9,212z"/>
	</g>
	<g id="_20" class="st3">
		<path class="st4" d="M11.2,187.5c2.8-2.2,4.3-3.5,4.3-4.8c0-1-0.8-1.4-1.6-1.4c-0.9,0-1.6,0.4-2.1,1l-0.6-0.6
			c0.6-0.8,1.6-1.2,2.7-1.2c1.3,0,2.6,0.7,2.6,2.3c0,1.6-1.6,3-3.7,4.7h3.8v0.9h-5.3V187.5z"/>
		<path class="st4" d="M20.9,180.5c2.1,0,2.9,2.1,2.9,4c0,1.9-0.8,4-2.9,4c-2.1,0-2.9-2.1-2.9-4C18,182.5,18.8,180.5,20.9,180.5z
			 M20.9,181.3c-1.5,0-2,1.6-2,3.1s0.5,3.1,2,3.1c1.5,0,2-1.6,2-3.1S22.4,181.3,20.9,181.3z"/>
	</g>
	<g id="_40" class="st3">
		<path class="st4" d="M14.6,155.6H11v-0.8l3.3-4.9h1.3v4.9h1.1v0.8h-1.1v1.9h-1V155.6z M11.9,154.8h2.7v-4L11.9,154.8z"/>
		<path class="st4" d="M20.5,149.8c2.1,0,2.9,2.1,2.9,4c0,1.9-0.8,4-2.9,4c-2.1,0-2.9-2.1-2.9-4C17.6,151.8,18.4,149.8,20.5,149.8z
			 M20.5,150.6c-1.5,0-2,1.6-2,3.1s0.5,3.1,2,3.1c1.5,0,2-1.6,2-3.1S22,150.6,20.5,150.6z"/>
	</g>
	<g id="_60" class="st3">
		<path class="st4" d="M14.3,119.1c1,0,1.7,0.4,2.1,0.9l-0.5,0.7c-0.4-0.5-0.8-0.8-1.6-0.8c-1.5,0-2.2,1.5-2.2,3c0,0.1,0,0.2,0,0.3
			c0.3-0.5,1.2-1.2,2.2-1.2c1.4,0,2.5,0.8,2.5,2.5c0,1.3-1,2.5-2.7,2.5c-2.1,0-3-1.9-3-4C11.2,120.9,12.2,119.1,14.3,119.1z
			 M14.1,122.9c-0.8,0-1.5,0.5-1.9,1.2c0.1,1,0.6,2.1,1.9,2.1c1.2,0,1.8-0.9,1.8-1.6C15.9,123.4,15.1,122.9,14.1,122.9z"/>
		<path class="st4" d="M20.9,119.1c2.1,0,2.9,2.1,2.9,4c0,1.9-0.8,4-2.9,4c-2.1,0-2.9-2.1-2.9-4C18,121.1,18.8,119.1,20.9,119.1z
			 M20.9,119.9c-1.5,0-2,1.6-2,3.1s0.5,3.1,2,3.1c1.5,0,2-1.6,2-3.1S22.4,119.9,20.9,119.9z"/>
	</g>
	<g id="_80" class="st3">
		<path class="st4" d="M13,92.2c-0.9-0.3-1.7-0.8-1.7-1.8c0-1.4,1.3-2,2.6-2c1.3,0,2.6,0.6,2.6,2c0,1-0.8,1.6-1.7,1.8
			c1,0.3,1.8,1,1.8,2c0,1.3-1.2,2.1-2.7,2.1c-1.5,0-2.7-0.8-2.7-2.1C11.2,93.2,12.1,92.5,13,92.2z M14,92.6
			c-0.5,0.1-1.8,0.5-1.8,1.5c0,0.8,0.8,1.3,1.8,1.3c0.9,0,1.8-0.5,1.8-1.3C15.7,93.1,14.4,92.7,14,92.6z M14,89.2
			c-0.9,0-1.7,0.5-1.7,1.3c0,0.9,1.2,1.2,1.7,1.3c0.5-0.1,1.7-0.4,1.7-1.3C15.6,89.7,14.9,89.2,14,89.2z"/>
		<path class="st4" d="M20.8,88.4c2.1,0,2.9,2.1,2.9,4c0,1.9-0.8,4-2.9,4c-2.1,0-2.9-2.1-2.9-4C17.9,90.4,18.7,88.4,20.8,88.4z
			 M20.8,89.2c-1.5,0-2,1.6-2,3.1s0.5,3.1,2,3.1c1.5,0,2-1.6,2-3.1S22.3,89.2,20.8,89.2z"/>
	</g>
	<g id="_100" class="st3">
		<path class="st4" d="M7.9,59l-1.2,1.3l-0.6-0.6l1.9-2h0.8v7.7h-1V59z"/>
		<path class="st4" d="M13.2,57.7c2.1,0,2.9,2.1,2.9,4c0,1.9-0.8,4-2.9,4c-2.1,0-2.9-2.1-2.9-4C10.3,59.7,11.1,57.7,13.2,57.7z
			 M13.2,58.5c-1.5,0-2,1.6-2,3.1s0.5,3.1,2,3.1c1.5,0,2-1.6,2-3.1S14.7,58.5,13.2,58.5z"/>
		<path class="st4" d="M20.3,57.7c2.1,0,2.9,2.1,2.9,4c0,1.9-0.8,4-2.9,4c-2.1,0-2.9-2.1-2.9-4C17.3,59.7,18.2,57.7,20.3,57.7z
			 M20.3,58.5c-1.5,0-2,1.6-2,3.1s0.5,3.1,2,3.1c1.5,0,2-1.6,2-3.1S21.7,58.5,20.3,58.5z"/>
	</g>
</g>
</svg>
