<?xml version="1.0" encoding="utf-8"?>
<!-- Generator: Adobe Illustrator 19.2.1, SVG Export Plug-In . SVG Version: 6.00 Build 0)  -->
<svg version="1.1" id="Layer_1" xmlns="http://www.w3.org/2000/svg" xmlns:xlink="http://www.w3.org/1999/xlink" x="0px" y="0px"
	 viewBox="0 0 140 40" style="enable-background:new 0 0 140 40;" xml:space="preserve">
<style type="text/css">
	.st0{fill:#EEEEEE;}
	.st1{fill:#FFFFFF;}
</style>
<g>
	<g>
		<path class="st0" d="M20.4,12.9c0.8-0.2,1.2-0.3,2.1-0.4c1.9-0.3,2.3-0.1,2.9,2.1c0.3,0.9,0.4,1.3,0.6,2.2
			c2.6-0.4,3.9-0.6,6.5-0.9c-0.9-2.6-1.5-3.9-2.9-6.4c-1.3-2.2-4.1-4.1-5.9-3.9c-2,0.2-3,0.4-5,0.9C19.5,9,19.8,10.3,20.4,12.9z"/>
		<path class="st1" d="M27,22.1c0.2,1,0.2,1.4,0.4,2.4c0.3,2.2,0,2.6-2.2,2.9c-0.9,0.1-1.3,0.2-2.2,0.2c0.3,2.7,0.5,4.1,0.7,6.9
			c2.6-0.1,3.8-0.2,6.3-0.8c2.2-0.5,4.3-3.3,4.3-5.8c0-2.8-0.1-4.2-0.6-7C31.1,21.5,29.7,21.7,27,22.1z"/>
		<path class="st0" d="M17.8,28c-0.9,0-1.4,0-2.3,0c-2.1,0-2.5-0.3-2.8-2.2c-0.1-0.8-0.2-1.1-0.3-1.9c-2.6,0.2-4,0.2-6.6,0.3
			c0.1,1.8,0.3,2.7,0.8,4.4c0.4,1.5,3,3.6,5.4,4.3c2.7,0.8,4.1,1.1,6.8,1.4C18.3,31.8,18.1,30.5,17.8,28z"/>
		<path class="st1" d="M12,19.4c-0.1-0.8-0.1-1.2-0.1-2c-0.1-1.8,0.2-2.2,2-2.8c0.8-0.2,1.1-0.3,1.9-0.6c-0.3-2.5-0.4-3.8-0.7-6.3
			c-1.9,0.9-2.8,1.4-4.7,2.6c-1.6,1.1-3.5,3.7-3.9,5.4c-0.5,2-0.6,3-0.7,4.9C8.3,20.2,9.5,19.9,12,19.4z"/>
	</g>
</g>
<g>
	<path class="st1" d="M51.3,23.5l-3.6-1c-1.2-0.3-2-0.8-2.5-1.4c-0.5-0.6-0.7-1.5-0.7-2.6c0-1.5,0.4-2.5,1.3-3.1
		c0.8-0.6,2.3-0.8,4.3-0.8c2.2,0,4.3,0.2,6.1,0.5l-0.3,2.4c-2.3-0.1-4.1-0.1-5.2-0.1c-1.2,0-2,0.1-2.4,0.2c-0.4,0.1-0.5,0.5-0.5,1
		c0,0.1,0,0.3,0,0.4c0,0.1,0.1,0.2,0.1,0.3s0.1,0.1,0.2,0.2s0.1,0.1,0.2,0.2c0,0,0.1,0.1,0.3,0.1s0.3,0.1,0.3,0.1
		c0.1,0,0.2,0.1,0.4,0.1c0.2,0.1,0.4,0.1,0.4,0.1l3.7,1c1.2,0.3,2,0.8,2.5,1.4s0.8,1.4,0.8,2.6c0,1.6-0.5,2.7-1.4,3.2
		c-0.9,0.6-2.5,0.8-4.8,0.8c-2.1,0-4-0.1-5.7-0.4l0.2-2.4c1,0.1,2.5,0.1,4.7,0.1c1.5,0,2.5-0.1,3-0.3c0.5-0.2,0.7-0.5,0.7-1.1
		c0-0.1,0-0.2,0-0.3c0-0.1,0-0.2-0.1-0.3c0-0.1-0.1-0.1-0.1-0.2c0-0.1-0.1-0.1-0.2-0.2s-0.2-0.1-0.2-0.1c-0.1,0-0.2-0.1-0.3-0.1
		c-0.1,0-0.2-0.1-0.3-0.1s-0.2-0.1-0.4-0.1C51.6,23.6,51.4,23.5,51.3,23.5z"/>
	<path class="st1" d="M59.9,17.7l-0.3-2.4c2.4-0.4,4.7-0.7,6.9-0.7c1.8,0,3.1,0.4,3.9,1.1c0.8,0.7,1.2,2,1.2,3.7v9.3h-2.7l-0.4-2.1
		c-1.4,1.6-3.2,2.4-5.2,2.4C62,29,61,28.7,60.2,28C59.4,27.3,59,26.3,59,25v-1.4c0-1.1,0.4-2,1.1-2.5c0.7-0.6,1.7-0.9,3-0.9h5.2
		v-0.8c0-0.8-0.2-1.3-0.5-1.6c-0.3-0.3-1-0.4-2-0.4C64.2,17.4,62.3,17.5,59.9,17.7z M62.4,24.1v0.5c0,1.1,0.6,1.7,1.8,1.7
		c1.4,0,2.7-0.5,4-1.6v-2.1h-4.4c-0.5,0-0.9,0.2-1.1,0.4C62.5,23.2,62.4,23.6,62.4,24.1z"/>
	<path class="st1" d="M78.2,15l0.2,2c2.1-1.6,4.1-2.4,5.9-2.4c1.2,0,2.1,0.3,2.8,1c0.7,0.7,1,1.6,1,2.8v10.3h-3.4v-9.3
		c0-0.8-0.1-1.3-0.3-1.6c-0.2-0.3-0.6-0.4-1.1-0.4c-0.6,0-1.3,0.1-1.9,0.4c-0.7,0.3-1.5,0.7-2.6,1.3v9.5h-3.4V15H78.2z"/>
	<path class="st1" d="M104.4,9.1v19.6h-2.7l-0.3-1.9c-1.6,1.5-3.4,2.2-5.3,2.2c-1.7,0-2.9-0.6-3.7-1.8c-0.8-1.2-1.1-3-1.1-5.4
		c0-2.6,0.4-4.5,1.3-5.6c0.8-1.1,2.2-1.6,4-1.6c1.8,0,3.3,0.4,4.6,1.2c-0.1-0.7-0.1-1.7-0.1-2.7V9.1H104.4z M100.9,24.7v-6.8
		c-1.5-0.4-2.6-0.6-3.4-0.6c-1.1,0-1.8,0.3-2.2,0.9c-0.4,0.6-0.6,1.7-0.6,3.5c0,1.7,0.2,2.9,0.6,3.5c0.4,0.6,1.1,0.9,2,0.9
		c0.6,0,1.2-0.1,1.7-0.3C99.4,25.7,100.1,25.3,100.9,24.7z"/>
	<path class="st1" d="M108.4,17.7l-0.3-2.4c2.4-0.4,4.7-0.7,6.9-0.7c1.8,0,3.1,0.4,3.9,1.1c0.8,0.7,1.2,2,1.2,3.7v9.3h-2.7l-0.4-2.1
		c-1.4,1.6-3.2,2.4-5.2,2.4c-1.3,0-2.3-0.4-3.1-1.1c-0.8-0.7-1.2-1.7-1.2-2.9v-1.4c0-1.1,0.4-2,1.1-2.5c0.7-0.6,1.7-0.9,3-0.9h5.2
		v-0.8c0-0.8-0.2-1.3-0.5-1.6c-0.3-0.3-1-0.4-2-0.4C112.7,17.4,110.8,17.5,108.4,17.7z M110.8,24.1v0.5c0,1.1,0.6,1.7,1.8,1.7
		c1.4,0,2.7-0.5,4-1.6v-2.1h-4.4c-0.5,0-0.9,0.2-1.1,0.4C111,23.2,110.8,23.6,110.8,24.1z"/>
	<path class="st1" d="M127.2,9.1v15.3c0,0.5,0.1,0.9,0.4,1.2c0.3,0.3,0.7,0.4,1.2,0.4h1.2l0.4,2.5c-0.6,0.3-1.6,0.5-2.9,0.5
		c-1.1,0-2-0.3-2.7-1s-1-1.6-1-2.8V9.1H127.2z"/>
</g>
</svg>
