<?xml version="1.0" encoding="utf-8"?>
<svg version="1.1" id="Layer_1" xmlns="http://www.w3.org/2000/svg" xmlns:xlink="http://www.w3.org/1999/xlink" x="0px" y="0px"
	 viewBox="0 0 140 40" style="enable-background:new 0 0 140 40;" xml:space="preserve">
<style type="text/css">
	.st0{fill:#1E435A;}
	.st1{fill:#71A416;}
</style>
<g>
	<g>
		<path class="st0" d="M20.4,12.9c0.8-0.2,1.2-0.3,2.1-0.4c1.9-0.3,2.3-0.1,2.9,2.1c0.3,0.9,0.4,1.3,0.6,2.2
			c2.6-0.4,3.9-0.6,6.5-0.9c-0.9-2.6-1.5-3.9-2.9-6.4c-1.3-2.2-4.1-4.1-5.9-3.9c-2,0.2-3,0.4-5,0.9C19.5,9,19.8,10.3,20.4,12.9z"/>
		<path class="st1" d="M27,22.1c0.2,1,0.2,1.4,0.4,2.4c0.3,2.2,0,2.6-2.2,2.9c-0.9,0.1-1.3,0.2-2.2,0.2c0.3,2.7,0.5,4.1,0.7,6.9
			c2.6-0.1,3.8-0.2,6.3-0.8c2.2-0.5,4.3-3.3,4.3-5.8c0-2.8-0.1-4.2-0.6-7C31.1,21.5,29.7,21.7,27,22.1z"/>
		<path class="st0" d="M17.8,28c-0.9,0-1.4,0-2.3,0c-2.1,0-2.5-0.3-2.8-2.2c-0.1-0.8-0.2-1.1-0.3-1.9c-2.6,0.2-4,0.2-6.6,0.3
			c0.1,1.8,0.3,2.7,0.8,4.4c0.4,1.5,3,3.6,5.4,4.3c2.7,0.8,4.1,1.1,6.8,1.4C18.3,31.8,18.1,30.5,17.8,28z"/>
		<path class="st1" d="M12,19.4c-0.1-0.8-0.1-1.2-0.1-2c-0.1-1.8,0.2-2.2,2-2.8c0.8-0.2,1.1-0.3,1.9-0.6c-0.3-2.5-0.4-3.8-0.7-6.3
			c-1.9,0.9-2.8,1.4-4.7,2.6c-1.6,1.1-3.5,3.7-3.9,5.4c-0.5,2-0.6,3-0.7,4.9C8.3,20.2,9.5,19.9,12,19.4z"/>
	</g>
</g>
<g>
	<path class="st0" d="M51.6,23.3l-3.8-1c-1.1-0.3-1.9-0.7-2.4-1.3c-0.5-0.6-0.7-1.4-0.7-2.6c0-1.5,0.4-2.5,1.2-3.1
		c0.8-0.5,2.2-0.8,4.2-0.8c2.2,0,4.1,0.2,5.8,0.5l-0.2,2C52.8,17,51.1,17,50.5,17c-1.3,0-2.2,0.1-2.6,0.2c-0.4,0.2-0.6,0.6-0.6,1.3
		c0,0.3,0,0.6,0.1,0.8c0.1,0.2,0.2,0.4,0.4,0.5c0.2,0.1,0.4,0.2,0.5,0.3c0.1,0,0.4,0.1,0.9,0.3l3.9,1c1.2,0.3,2,0.7,2.5,1.3
		c0.5,0.6,0.7,1.4,0.7,2.6c0,1.6-0.4,2.7-1.3,3.2S52.5,29,50.3,29c-1.9,0-3.7-0.1-5.4-0.4l0.2-2c1,0.1,2.6,0.1,4.7,0.1
		c1.5,0,2.6-0.1,3.1-0.3c0.5-0.2,0.8-0.7,0.8-1.4c0-0.3,0-0.5-0.1-0.7c-0.1-0.2-0.2-0.4-0.5-0.5c-0.2-0.1-0.4-0.2-0.6-0.3
		C52.3,23.5,52,23.5,51.6,23.3z"/>
	<path class="st0" d="M59.8,17.3l-0.3-2c2.5-0.4,4.7-0.6,6.6-0.6c1.7,0,2.9,0.3,3.7,1c0.8,0.7,1.2,1.8,1.2,3.5v9.5h-2.1l-0.3-2.2
		C67,28.2,65.2,29,63.1,29c-1.3,0-2.3-0.3-3-1c-0.8-0.7-1.1-1.6-1.1-2.9v-1.4c0-1.1,0.3-1.9,1-2.5c0.7-0.6,1.6-0.9,2.9-0.9h5.5v-1.1
		c0-0.8-0.2-1.4-0.6-1.7S66.6,17,65.6,17C64.5,17,62.6,17.1,59.8,17.3z M61.7,24v0.7c0,0.7,0.2,1.2,0.5,1.5c0.3,0.3,0.8,0.4,1.5,0.4
		c1.6,0,3.2-0.6,4.6-1.9v-2.5h-5c-0.6,0-1,0.2-1.3,0.5C61.8,23.1,61.7,23.5,61.7,24z"/>
	<path class="st0" d="M77.4,15.1l0.2,2.1c2.1-1.6,4.2-2.5,6-2.5c1.2,0,2.1,0.3,2.8,1c0.6,0.6,0.9,1.6,0.9,2.8v10.2h-2.7v-9.5
		c0-0.9-0.1-1.5-0.4-1.8C84,17.1,83.5,17,82.8,17c-0.7,0-1.4,0.2-2.1,0.5C80,17.8,79,18.3,77.8,19v9.7h-2.7V15.1H77.4z"/>
	<path class="st0" d="M101.2,28.7l-0.2-1.9c-1.8,1.5-3.5,2.2-5.4,2.2c-1.7,0-2.9-0.6-3.7-1.8c-0.8-1.2-1.1-3-1.1-5.4
		c0-2.6,0.4-4.5,1.3-5.5c0.8-1.1,2.2-1.6,3.9-1.6c1.7,0,3.3,0.4,4.7,1.2c-0.1-0.8-0.1-1.7-0.1-2.7V9.1h2.7v19.6H101.2z M100.6,25
		v-7.3c-1.7-0.4-3-0.7-3.9-0.7c-1.2,0-2,0.3-2.4,1s-0.7,1.9-0.7,3.8c0,1.9,0.2,3.2,0.7,3.9c0.4,0.7,1.2,1,2.3,1
		c0.7,0,1.3-0.1,1.8-0.4C98.9,26.1,99.6,25.6,100.6,25z"/>
	<path class="st0" d="M107.6,17.3l-0.3-2c2.5-0.4,4.7-0.6,6.6-0.6c1.7,0,2.9,0.3,3.7,1c0.8,0.7,1.2,1.8,1.2,3.5v9.5h-2.1l-0.3-2.2
		c-1.6,1.6-3.4,2.4-5.5,2.4c-1.3,0-2.3-0.3-3-1c-0.8-0.7-1.1-1.6-1.1-2.9v-1.4c0-1.1,0.3-1.9,1-2.5c0.7-0.6,1.6-0.9,2.9-0.9h5.5
		v-1.1c0-0.8-0.2-1.4-0.6-1.7s-1.1-0.5-2.1-0.5C112.4,17,110.5,17.1,107.6,17.3z M109.5,24v0.7c0,0.7,0.2,1.2,0.5,1.5
		c0.3,0.3,0.8,0.4,1.5,0.4c1.6,0,3.2-0.6,4.6-1.9v-2.5h-5c-0.6,0-1,0.2-1.3,0.5C109.7,23.1,109.5,23.5,109.5,24z"/>
	<path class="st0" d="M125.7,9.1v15.7c0,0.6,0.1,1,0.4,1.3c0.3,0.3,0.7,0.4,1.3,0.4h1.3l0.3,2.1c-0.5,0.2-1.4,0.4-2.6,0.4
		c-1.1,0-1.9-0.3-2.5-0.9c-0.6-0.6-0.9-1.5-0.9-2.6V9.1H125.7z"/>
</g>
</svg>
